# xmcd
#
# Track frame offsets:
# 150
# 17949
# 32213
# 48656
# 65199
# 82212
# 95798
# 110609
# 122324
# 135266
# 150710
# 163146
# 174707
# 190688
# 206292
# 220535
# 236128
#
# Disc length: 3290 seconds
#
#
# Revision: 0
# Processed by: cddbd v1.5.2PL0 Copyright (c) Steve Scherf et al.
# Submitted via: FreeRIP 2.951 
#
DISCID=f30cd811
DTITLE=Varios artistas - Coletanea 01
DYEAR=1900
DGENRE=Acoustic
TTITLE0=SE APERTAR ELA DÁ
TTITLE1=LATINHA
TTITLE2=AOS TRANCOS E BARRANCOS
TTITLE3=EU JA FUI DE VOCÊ
TTITLE4=UMA FOTO SUA
TTITLE5=ELA ENCASQUETOU
TTITLE6=ALÔ GOIAS
TTITLE7=PORQUE É QUE EU TO AQUI
TTITLE8=NA VARA
TTITLE9=A GENTE VAI
TTITLE10=COICE DE VACA
TTITLE11=METO O PÉ NA CARA DELE
TTITLE12=QUEM CHOROU FUI EU
TTITLE13=DANDO MOLE
TTITLE14=NÁUFRAGO ILHADO
TTITLE15=PORTA BANDEIRA
TTITLE16=CHURRASCO DE PAIXÃO
EXTD=
EXTT0=
EXTT1=
EXTT2=
EXTT3=
EXTT4=
EXTT5=
EXTT6=
EXTT7=
EXTT8=
EXTT9=
EXTT10=
EXTT11=
EXTT12=
EXTT13=
EXTT14=
EXTT15=
EXTT16=
PLAYORDER=
